<svg width="219" height="191" viewBox="0 0 219 191" fill="none" xmlns="http://www.w3.org/2000/svg">
<path d="M3.922 50V7.07H20.458V9.296H6.837V25.196H11.554C14.204 25.196 16.377 25.673 18.073 26.627C19.769 27.5457 21.0233 28.9413 21.836 30.814C22.6487 32.6867 23.055 35.0363 23.055 37.863C23.055 39.6297 22.843 41.255 22.419 42.739C22.0303 44.223 21.3767 45.5127 20.458 46.608C19.5747 47.668 18.4087 48.4983 16.96 49.099C15.5113 49.6997 13.7447 50 11.66 50H3.922ZM6.837 47.668H11.713C13.7977 47.668 15.4407 47.297 16.642 46.555C17.8787 45.7777 18.762 44.6647 19.292 43.216C19.822 41.732 20.087 39.93 20.087 37.81C20.087 34.5947 19.4687 32.086 18.232 30.284C17.0307 28.4467 14.8577 27.528 11.713 27.528H6.837V47.668ZM38.5695 50.583C35.7782 50.583 33.6052 50.0353 32.0505 48.94C30.5312 47.8093 29.4712 46.29 28.8705 44.382C28.2698 42.4387 27.9695 40.248 27.9695 37.81V19.048C27.9695 16.61 28.2875 14.4547 28.9235 12.582C29.5595 10.7093 30.6372 9.243 32.1565 8.183C33.7112 7.123 35.8488 6.593 38.5695 6.593C41.2902 6.593 43.4102 7.123 44.9295 8.183C46.4842 9.243 47.5795 10.7093 48.2155 12.582C48.8515 14.4547 49.1695 16.61 49.1695 19.048V37.863C49.1695 40.301 48.8692 42.474 48.2685 44.382C47.6678 46.29 46.5902 47.8093 45.0355 48.94C43.5162 50.0353 41.3608 50.583 38.5695 50.583ZM38.5695 48.198C40.6188 48.198 42.1912 47.7917 43.2865 46.979C44.4172 46.1663 45.1945 45.0357 45.6185 43.587C46.0425 42.103 46.2545 40.3893 46.2545 38.446V18.624C46.2545 16.6807 46.0425 14.9847 45.6185 13.536C45.1945 12.0873 44.4348 10.9743 43.3395 10.197C42.2442 9.38433 40.6542 8.978 38.5695 8.978C36.5202 8.978 34.9302 9.38433 33.7995 10.197C32.7042 10.9743 31.9445 12.0873 31.5205 13.536C31.0965 14.9847 30.8845 16.6807 30.8845 18.624V38.446C30.8845 40.3893 31.0965 42.103 31.5205 43.587C31.9445 45.0357 32.7042 46.1663 33.7995 46.979C34.9302 47.7917 36.5202 48.198 38.5695 48.198ZM53.5486 50.106V47.827C54.6793 47.7563 55.6156 47.615 56.3576 47.403C57.0996 47.191 57.7003 46.6963 58.1596 45.919C58.619 45.1417 59.0076 43.8873 59.3256 42.156C59.6436 40.4247 59.944 38.022 60.2266 34.948C60.5446 31.874 60.898 27.9167 61.2866 23.076L62.4526 7.07H77.8226V50H74.9076V9.296H65.1556L64.0956 23.076C63.707 27.9167 63.3536 31.9623 63.0356 35.213C62.7176 38.4283 62.3466 41.0253 61.9226 43.004C61.534 44.9827 61.004 46.4843 60.3326 47.509C59.6966 48.4983 58.831 49.1697 57.7356 49.523C56.6403 49.8763 55.2446 50.0707 53.5486 50.106ZM85.6476 50V7.07H100.488V9.402H88.5626V26.627H98.3676V28.853H88.5626V47.721H100.647V50H85.6476ZM106.454 50V7.07H121.294V9.402H109.369V26.627H119.174V28.853H109.369V47.721H121.453V50H106.454ZM153.255 50V30.072C151.029 30.708 148.927 31.026 146.948 31.026C144.722 31.026 142.796 30.7257 141.171 30.125C139.581 29.489 138.344 28.4997 137.461 27.157C136.578 25.779 136.136 23.977 136.136 21.751V7.07H139.051V21.751C139.051 23.6943 139.422 25.1783 140.164 26.203C140.906 27.2277 141.895 27.9343 143.132 28.323C144.404 28.7117 145.817 28.906 147.372 28.906C148.503 28.906 149.563 28.8177 150.552 28.641C151.577 28.429 152.478 28.1817 153.255 27.899V7.07H156.17V50H153.255ZM164.061 50V7.07H178.901V9.402H166.976V26.627H176.781V28.853H166.976V47.721H179.06V50H164.061ZM184.39 50L185.662 7.07H188.524L197.587 45.813L206.809 7.07H209.777L210.996 50H208.505L207.445 14.013L198.7 50H196.58L187.941 14.066L186.881 50H184.39Z" fill="#FDFDFD"/>
<path d="M25.7288 158.5C19.7955 158.5 15.2955 157.467 12.2288 155.4C9.22879 153.267 7.19546 150.3 6.12879 146.5C5.06212 142.7 4.52879 138.3 4.52879 133.3H20.6288C20.6288 136.367 20.7955 138.867 21.1288 140.8C21.4621 142.733 22.0621 144.133 22.9288 145C23.8621 145.8 25.1621 146.167 26.8288 146.1C28.5621 146.033 29.7955 145.333 30.5288 144C31.2621 142.667 31.6955 140.767 31.8288 138.3C32.0288 135.767 32.1288 132.733 32.1288 129.2C32.1288 126.533 31.9621 124.167 31.6288 122.1C31.3621 120.033 30.7621 118.4 29.8288 117.2C28.9621 115.933 27.6288 115.3 25.8288 115.3C24.1621 115.3 22.7955 115.9 21.7288 117.1C20.6621 118.3 19.8955 120.167 19.4288 122.7H5.02879L6.52879 76H44.3288V90H19.9288L19.0288 106.7C19.6955 105.767 20.9621 104.967 22.8288 104.3C24.6955 103.567 26.6955 103.1 28.8288 102.9C32.9621 102.433 36.4288 103.2 39.2288 105.2C42.0955 107.133 44.2288 110.1 45.6288 114.1C47.0955 118.1 47.8288 123 47.8288 128.8C47.8288 133.133 47.5621 137.133 47.0288 140.8C46.4955 144.4 45.4621 147.533 43.9288 150.2C42.3955 152.8 40.1621 154.833 37.2288 156.3C34.2955 157.767 30.4621 158.5 25.7288 158.5ZM78.6077 158.5C73.741 158.5 69.6744 157.533 66.4077 155.6C63.141 153.6 60.6744 150.867 59.0077 147.4C57.341 143.933 56.5077 139.9 56.5077 135.3V98.6C56.5077 93.8667 57.2744 89.7333 58.8077 86.2C60.4077 82.6 62.841 79.8 66.1077 77.8C69.3744 75.8 73.541 74.8 78.6077 74.8C83.6744 74.8 87.8077 75.8 91.0077 77.8C94.2744 79.8 96.6744 82.6 98.2077 86.2C99.8077 89.7333 100.608 93.8667 100.608 98.6V135.3C100.608 139.833 99.7744 143.867 98.1077 147.4C96.441 150.867 93.9744 153.6 90.7077 155.6C87.441 157.533 83.4077 158.5 78.6077 158.5ZM78.6077 143.6C80.2077 143.6 81.341 143.1 82.0077 142.1C82.741 141.033 83.1744 139.833 83.3077 138.5C83.5077 137.1 83.6077 135.9 83.6077 134.9V99C83.6077 97.8667 83.541 96.6 83.4077 95.2C83.2744 93.7333 82.841 92.4667 82.1077 91.4C81.441 90.2667 80.2744 89.7 78.6077 89.7C76.941 89.7 75.741 90.2667 75.0077 91.4C74.341 92.4667 73.941 93.7333 73.8077 95.2C73.6744 96.6 73.6077 97.8667 73.6077 99V134.9C73.6077 135.9 73.7077 137.1 73.9077 138.5C74.1077 139.833 74.541 141.033 75.2077 142.1C75.941 143.1 77.0744 143.6 78.6077 143.6ZM133.588 158.5C128.721 158.5 124.655 157.533 121.388 155.6C118.121 153.6 115.655 150.867 113.988 147.4C112.321 143.933 111.488 139.9 111.488 135.3V98.6C111.488 93.8667 112.255 89.7333 113.788 86.2C115.388 82.6 117.821 79.8 121.088 77.8C124.355 75.8 128.521 74.8 133.588 74.8C138.655 74.8 142.788 75.8 145.988 77.8C149.255 79.8 151.655 82.6 153.188 86.2C154.788 89.7333 155.588 93.8667 155.588 98.6V135.3C155.588 139.833 154.755 143.867 153.088 147.4C151.422 150.867 148.955 153.6 145.688 155.6C142.421 157.533 138.388 158.5 133.588 158.5ZM133.588 143.6C135.188 143.6 136.322 143.1 136.988 142.1C137.722 141.033 138.155 139.833 138.288 138.5C138.488 137.1 138.588 135.9 138.588 134.9V99C138.588 97.8667 138.522 96.6 138.388 95.2C138.255 93.7333 137.821 92.4667 137.088 91.4C136.421 90.2667 135.255 89.7 133.588 89.7C131.921 89.7 130.721 90.2667 129.988 91.4C129.322 92.4667 128.922 93.7333 128.788 95.2C128.655 96.6 128.588 97.8667 128.588 99V134.9C128.588 135.9 128.688 137.1 128.888 138.5C129.088 139.833 129.521 141.033 130.188 142.1C130.921 143.1 132.055 143.6 133.588 143.6ZM188.569 158.5C183.702 158.5 179.635 157.533 176.369 155.6C173.102 153.6 170.635 150.867 168.969 147.4C167.302 143.933 166.469 139.9 166.469 135.3V98.6C166.469 93.8667 167.235 89.7333 168.769 86.2C170.369 82.6 172.802 79.8 176.069 77.8C179.335 75.8 183.502 74.8 188.569 74.8C193.635 74.8 197.769 75.8 200.969 77.8C204.235 79.8 206.635 82.6 208.169 86.2C209.769 89.7333 210.569 93.8667 210.569 98.6V135.3C210.569 139.833 209.735 143.867 208.069 147.4C206.402 150.867 203.935 153.6 200.669 155.6C197.402 157.533 193.369 158.5 188.569 158.5ZM188.569 143.6C190.169 143.6 191.302 143.1 191.969 142.1C192.702 141.033 193.135 139.833 193.269 138.5C193.469 137.1 193.569 135.9 193.569 134.9V99C193.569 97.8667 193.502 96.6 193.369 95.2C193.235 93.7333 192.802 92.4667 192.069 91.4C191.402 90.2667 190.235 89.7 188.569 89.7C186.902 89.7 185.702 90.2667 184.969 91.4C184.302 92.4667 183.902 93.7333 183.769 95.2C183.635 96.6 183.569 97.8667 183.569 99V134.9C183.569 135.9 183.669 137.1 183.869 138.5C184.069 139.833 184.502 141.033 185.169 142.1C185.902 143.1 187.035 143.6 188.569 143.6Z" fill="#FDFDFD"/>
<path d="M1.2 190V173.8H10.9V190H7.38V176.36H4.72V190H1.2ZM13.3094 190V173.8H18.7494C19.7227 173.8 20.5227 173.987 21.1494 174.36C21.776 174.72 22.2427 175.253 22.5494 175.96C22.856 176.653 23.0094 177.5 23.0094 178.5C23.0094 179.753 22.8027 180.713 22.3894 181.38C21.976 182.033 21.416 182.487 20.7094 182.74C20.0027 182.993 19.2094 183.12 18.3294 183.12H16.8894V190H13.3094ZM16.8894 180.62H18.0894C18.5294 180.62 18.8627 180.54 19.0894 180.38C19.316 180.22 19.4627 179.98 19.5294 179.66C19.6094 179.34 19.6494 178.933 19.6494 178.44C19.6494 178.027 19.616 177.667 19.5494 177.36C19.496 177.04 19.356 176.787 19.1294 176.6C18.9027 176.413 18.5494 176.32 18.0694 176.32H16.8894V180.62ZM29.3752 190.24C28.1618 190.24 27.2018 190.027 26.4952 189.6C25.7885 189.173 25.2818 188.56 24.9752 187.76C24.6685 186.96 24.5152 186.007 24.5152 184.9V178.88C24.5152 177.76 24.6685 176.807 24.9752 176.02C25.2818 175.233 25.7885 174.633 26.4952 174.22C27.2018 173.793 28.1618 173.58 29.3752 173.58C30.6018 173.58 31.5685 173.793 32.2752 174.22C32.9952 174.633 33.5085 175.233 33.8152 176.02C34.1218 176.807 34.2752 177.76 34.2752 178.88V184.9C34.2752 186.007 34.1218 186.96 33.8152 187.76C33.5085 188.56 32.9952 189.173 32.2752 189.6C31.5685 190.027 30.6018 190.24 29.3752 190.24ZM29.3752 187.7C29.7485 187.7 30.0218 187.607 30.1952 187.42C30.3685 187.233 30.4818 186.993 30.5352 186.7C30.5885 186.407 30.6152 186.107 30.6152 185.8V178C30.6152 177.68 30.5885 177.38 30.5352 177.1C30.4818 176.807 30.3685 176.567 30.1952 176.38C30.0218 176.193 29.7485 176.1 29.3752 176.1C29.0285 176.1 28.7685 176.193 28.5952 176.38C28.4218 176.567 28.3085 176.807 28.2552 177.1C28.2018 177.38 28.1752 177.68 28.1752 178V185.8C28.1752 186.107 28.1952 186.407 28.2352 186.7C28.2885 186.993 28.3952 187.233 28.5552 187.42C28.7285 187.607 29.0018 187.7 29.3752 187.7ZM36.4539 190V173.8H43.7339V176.24H40.0339V180.26H42.8539V182.74H40.0339V187.58H43.7739V190H36.4539ZM45.4592 190V173.8H49.0392V180.22H49.3992L51.7792 173.8H55.3392L52.3792 181.4L55.4392 190H51.7592L49.3992 182.94H49.0392V190H45.4592ZM58.3045 190V176.46H55.8645V173.8H64.3245V176.46H61.9045V190H58.3045ZM70.3908 190.24C69.1774 190.24 68.2174 190.027 67.5108 189.6C66.8041 189.173 66.2974 188.56 65.9908 187.76C65.6841 186.96 65.5308 186.007 65.5308 184.9V178.88C65.5308 177.76 65.6841 176.807 65.9908 176.02C66.2974 175.233 66.8041 174.633 67.5108 174.22C68.2174 173.793 69.1774 173.58 70.3908 173.58C71.6174 173.58 72.5841 173.793 73.2908 174.22C74.0108 174.633 74.5241 175.233 74.8308 176.02C75.1374 176.807 75.2908 177.76 75.2908 178.88V184.9C75.2908 186.007 75.1374 186.96 74.8308 187.76C74.5241 188.56 74.0108 189.173 73.2908 189.6C72.5841 190.027 71.6174 190.24 70.3908 190.24ZM70.3908 187.7C70.7641 187.7 71.0374 187.607 71.2108 187.42C71.3841 187.233 71.4974 186.993 71.5508 186.7C71.6041 186.407 71.6308 186.107 71.6308 185.8V178C71.6308 177.68 71.6041 177.38 71.5508 177.1C71.4974 176.807 71.3841 176.567 71.2108 176.38C71.0374 176.193 70.7641 176.1 70.3908 176.1C70.0441 176.1 69.7841 176.193 69.6108 176.38C69.4374 176.567 69.3241 176.807 69.2708 177.1C69.2174 177.38 69.1908 177.68 69.1908 178V185.8C69.1908 186.107 69.2108 186.407 69.2508 186.7C69.3041 186.993 69.4108 187.233 69.5708 187.42C69.7441 187.607 70.0174 187.7 70.3908 187.7ZM77.4695 190V173.8H81.6895C82.3829 173.8 83.0362 173.853 83.6495 173.96C84.2762 174.067 84.8295 174.273 85.3095 174.58C85.7895 174.873 86.1629 175.3 86.4295 175.86C86.7095 176.407 86.8495 177.133 86.8495 178.04C86.8495 178.693 86.7495 179.247 86.5495 179.7C86.3629 180.14 86.0895 180.493 85.7295 180.76C85.3829 181.027 84.9629 181.207 84.4695 181.3C85.0962 181.38 85.6229 181.587 86.0495 181.92C86.4762 182.24 86.7962 182.673 87.0095 183.22C87.2362 183.767 87.3495 184.427 87.3495 185.2C87.3495 186.04 87.2362 186.767 87.0095 187.38C86.7962 187.98 86.4829 188.473 86.0695 188.86C85.6562 189.247 85.1429 189.533 84.5295 189.72C83.9295 189.907 83.2362 190 82.4495 190H77.4695ZM81.0495 187.5H81.8095C82.5962 187.5 83.1362 187.3 83.4295 186.9C83.7362 186.5 83.8895 185.913 83.8895 185.14C83.8895 184.527 83.8229 184.04 83.6895 183.68C83.5562 183.32 83.3362 183.06 83.0295 182.9C82.7229 182.727 82.3095 182.64 81.7895 182.64H81.0495V187.5ZM81.0495 180.28H81.7495C82.2962 180.28 82.7095 180.2 82.9895 180.04C83.2695 179.867 83.4562 179.62 83.5495 179.3C83.6562 178.98 83.7095 178.593 83.7095 178.14C83.7095 177.713 83.6295 177.36 83.4695 177.08C83.3229 176.787 83.0962 176.567 82.7895 176.42C82.4962 176.273 82.1229 176.2 81.6695 176.2H81.0495V180.28ZM94.3445 190V173.8H98.5645C99.2579 173.8 99.9112 173.853 100.525 173.96C101.151 174.067 101.705 174.273 102.185 174.58C102.665 174.873 103.038 175.3 103.305 175.86C103.585 176.407 103.725 177.133 103.725 178.04C103.725 178.693 103.625 179.247 103.425 179.7C103.238 180.14 102.965 180.493 102.605 180.76C102.258 181.027 101.838 181.207 101.345 181.3C101.971 181.38 102.498 181.587 102.925 181.92C103.351 182.24 103.671 182.673 103.885 183.22C104.111 183.767 104.225 184.427 104.225 185.2C104.225 186.04 104.111 186.767 103.885 187.38C103.671 187.98 103.358 188.473 102.945 188.86C102.531 189.247 102.018 189.533 101.405 189.72C100.805 189.907 100.111 190 99.3245 190H94.3445ZM97.9245 187.5H98.6845C99.4712 187.5 100.011 187.3 100.305 186.9C100.611 186.5 100.765 185.913 100.765 185.14C100.765 184.527 100.698 184.04 100.565 183.68C100.431 183.32 100.211 183.06 99.9045 182.9C99.5979 182.727 99.1845 182.64 98.6645 182.64H97.9245V187.5ZM97.9245 180.28H98.6245C99.1712 180.28 99.5845 180.2 99.8645 180.04C100.145 179.867 100.331 179.62 100.425 179.3C100.531 178.98 100.585 178.593 100.585 178.14C100.585 177.713 100.505 177.36 100.345 177.08C100.198 176.787 99.9712 176.567 99.6645 176.42C99.3712 176.273 98.9979 176.2 98.5445 176.2H97.9245V180.28ZM111.22 190V173.8H120.92V190H117.4V176.36H114.74V190H111.22ZM127.969 190.24C126.756 190.24 125.796 190.027 125.089 189.6C124.382 189.173 123.876 188.56 123.569 187.76C123.262 186.96 123.109 186.007 123.109 184.9V178.88C123.109 177.76 123.262 176.807 123.569 176.02C123.876 175.233 124.382 174.633 125.089 174.22C125.796 173.793 126.756 173.58 127.969 173.58C129.196 173.58 130.162 173.793 130.869 174.22C131.589 174.633 132.102 175.233 132.409 176.02C132.716 176.807 132.869 177.76 132.869 178.88V184.9C132.869 186.007 132.716 186.96 132.409 187.76C132.102 188.56 131.589 189.173 130.869 189.6C130.162 190.027 129.196 190.24 127.969 190.24ZM127.969 187.7C128.342 187.7 128.616 187.607 128.789 187.42C128.962 187.233 129.076 186.993 129.129 186.7C129.182 186.407 129.209 186.107 129.209 185.8V178C129.209 177.68 129.182 177.38 129.129 177.1C129.076 176.807 128.962 176.567 128.789 176.38C128.616 176.193 128.342 176.1 127.969 176.1C127.622 176.1 127.362 176.193 127.189 176.38C127.016 176.567 126.902 176.807 126.849 177.1C126.796 177.38 126.769 177.68 126.769 178V185.8C126.769 186.107 126.789 186.407 126.829 186.7C126.882 186.993 126.989 187.233 127.149 187.42C127.322 187.607 127.596 187.7 127.969 187.7ZM135.048 190V173.8H140.488C141.461 173.8 142.261 173.987 142.888 174.36C143.514 174.72 143.981 175.253 144.288 175.96C144.594 176.653 144.748 177.5 144.748 178.5C144.748 179.753 144.541 180.713 144.128 181.38C143.714 182.033 143.154 182.487 142.448 182.74C141.741 182.993 140.948 183.12 140.068 183.12H138.628V190H135.048ZM138.628 180.62H139.828C140.268 180.62 140.601 180.54 140.828 180.38C141.054 180.22 141.201 179.98 141.268 179.66C141.348 179.34 141.388 178.933 141.388 178.44C141.388 178.027 141.354 177.667 141.288 177.36C141.234 177.04 141.094 176.787 140.868 176.6C140.641 176.413 140.288 176.32 139.808 176.32H138.628V180.62ZM147.933 190V176.46H145.493V173.8H153.953V176.46H151.533V190H147.933ZM160.32 190.58V188.16C160.12 188.173 159.913 188.187 159.7 188.2C159.5 188.213 159.293 188.22 159.08 188.22C158.346 188.22 157.673 188.067 157.06 187.76C156.46 187.453 155.98 187.007 155.62 186.42C155.273 185.82 155.1 185.093 155.1 184.24V179.36C155.1 178.587 155.28 177.9 155.64 177.3C156.013 176.7 156.526 176.233 157.18 175.9C157.846 175.553 158.606 175.38 159.46 175.38C159.606 175.38 159.753 175.387 159.9 175.4C160.06 175.4 160.2 175.407 160.32 175.42V172.86H163.2V175.42C163.32 175.407 163.446 175.4 163.58 175.4C163.713 175.387 163.853 175.38 164 175.38C164.893 175.38 165.666 175.553 166.32 175.9C166.986 176.233 167.5 176.7 167.86 177.3C168.233 177.9 168.42 178.587 168.42 179.36V184.26C168.42 185.113 168.24 185.84 167.88 186.44C167.533 187.027 167.066 187.473 166.48 187.78C165.906 188.087 165.266 188.24 164.56 188.24C164.333 188.24 164.106 188.233 163.88 188.22C163.666 188.207 163.44 188.193 163.2 188.18V190.58H160.32ZM159.92 186C159.986 186 160.06 186 160.14 186C160.22 185.987 160.28 185.973 160.32 185.96V177.56C160.266 177.547 160.193 177.54 160.1 177.54C160.02 177.527 159.946 177.52 159.88 177.52C159.546 177.52 159.26 177.593 159.02 177.74C158.78 177.887 158.593 178.093 158.46 178.36C158.326 178.627 158.26 178.947 158.26 179.32V184.3C158.26 184.62 158.313 184.907 158.42 185.16C158.526 185.413 158.7 185.62 158.94 185.78C159.18 185.927 159.506 186 159.92 186ZM163.62 185.98C164.006 185.98 164.32 185.913 164.56 185.78C164.8 185.633 164.973 185.433 165.08 185.18C165.2 184.927 165.26 184.633 165.26 184.3V179.32C165.26 178.92 165.2 178.587 165.08 178.32C164.96 178.053 164.786 177.853 164.56 177.72C164.346 177.587 164.086 177.52 163.78 177.52C163.673 177.52 163.573 177.527 163.48 177.54C163.386 177.54 163.293 177.547 163.2 177.56V185.94C163.266 185.953 163.333 185.967 163.4 185.98C163.48 185.98 163.553 185.98 163.62 185.98ZM175.195 190.24C173.982 190.24 173.022 190.027 172.315 189.6C171.609 189.173 171.102 188.56 170.795 187.76C170.489 186.96 170.335 186.007 170.335 184.9V178.88C170.335 177.76 170.489 176.807 170.795 176.02C171.102 175.233 171.609 174.633 172.315 174.22C173.022 173.793 173.982 173.58 175.195 173.58C176.422 173.58 177.389 173.793 178.095 174.22C178.815 174.633 179.329 175.233 179.635 176.02C179.942 176.807 180.095 177.76 180.095 178.88V184.9C180.095 186.007 179.942 186.96 179.635 187.76C179.329 188.56 178.815 189.173 178.095 189.6C177.389 190.027 176.422 190.24 175.195 190.24ZM175.195 187.7C175.569 187.7 175.842 187.607 176.015 187.42C176.189 187.233 176.302 186.993 176.355 186.7C176.409 186.407 176.435 186.107 176.435 185.8V178C176.435 177.68 176.409 177.38 176.355 177.1C176.302 176.807 176.189 176.567 176.015 176.38C175.842 176.193 175.569 176.1 175.195 176.1C174.849 176.1 174.589 176.193 174.415 176.38C174.242 176.567 174.129 176.807 174.075 177.1C174.022 177.38 173.995 177.68 173.995 178V185.8C173.995 186.107 174.015 186.407 174.055 186.7C174.109 186.993 174.215 187.233 174.375 187.42C174.549 187.607 174.822 187.7 175.195 187.7ZM181.214 190V187.48C181.668 187.48 182.034 187.453 182.314 187.4C182.594 187.333 182.814 187.187 182.974 186.96C183.134 186.733 183.261 186.387 183.354 185.92C183.448 185.453 183.521 184.827 183.574 184.04C183.641 183.253 183.721 182.253 183.814 181.04L184.334 173.8H192.914V190H189.354V176.54H187.574L187.254 181.72C187.161 183.053 187.068 184.207 186.974 185.18C186.881 186.14 186.728 186.947 186.514 187.6C186.314 188.253 186.008 188.767 185.594 189.14C185.194 189.5 184.641 189.747 183.934 189.88C183.228 190.013 182.321 190.053 181.214 190ZM195.459 190V173.8H198.279V183.08L202.419 173.8H204.739V190H201.859V180.56L197.639 190H195.459ZM211.836 190.24C210.623 190.24 209.663 190.027 208.956 189.6C208.249 189.173 207.743 188.56 207.436 187.76C207.129 186.96 206.976 186.007 206.976 184.9V178.88C206.976 177.76 207.129 176.807 207.436 176.02C207.743 175.233 208.249 174.633 208.956 174.22C209.663 173.793 210.623 173.58 211.836 173.58C213.063 173.58 214.029 173.793 214.736 174.22C215.456 174.633 215.969 175.233 216.276 176.02C216.583 176.807 216.736 177.76 216.736 178.88V184.9C216.736 186.007 216.583 186.96 216.276 187.76C215.969 188.56 215.456 189.173 214.736 189.6C214.029 190.027 213.063 190.24 211.836 190.24ZM211.836 187.7C212.209 187.7 212.483 187.607 212.656 187.42C212.829 187.233 212.943 186.993 212.996 186.7C213.049 186.407 213.076 186.107 213.076 185.8V178C213.076 177.68 213.049 177.38 212.996 177.1C212.943 176.807 212.829 176.567 212.656 176.38C212.483 176.193 212.209 176.1 211.836 176.1C211.489 176.1 211.229 176.193 211.056 176.38C210.883 176.567 210.769 176.807 210.716 177.1C210.663 177.38 210.636 177.68 210.636 178V185.8C210.636 186.107 210.656 186.407 210.696 186.7C210.749 186.993 210.856 187.233 211.016 187.42C211.189 187.607 211.463 187.7 211.836 187.7Z" fill="#FDFDFD"/>
</svg>
